<svg width="419" height="61" viewBox="0 0 419 61" fill="none" xmlns="http://www.w3.org/2000/svg">
<path d="M13.504 47L0.96 2.2H10.24L18.816 35.416L28.16 2.2H35.712L45.12 35.416L53.696 2.2H62.976L50.432 47H40.384L31.936 17.432L23.552 47H13.504ZM70.877 34.392C71.9863 38.4027 74.9943 40.408 79.901 40.408C83.0583 40.408 85.4477 39.3413 87.069 37.208L93.725 41.048C90.5677 45.6133 85.917 47.896 79.773 47.896C74.4823 47.896 70.237 46.296 67.037 43.096C63.837 39.896 62.237 35.864 62.237 31C62.237 26.1787 63.8157 22.168 66.973 18.968C70.1303 15.7253 74.1837 14.104 79.133 14.104C83.8263 14.104 87.6877 15.7253 90.717 18.968C93.789 22.2107 95.325 26.2213 95.325 31C95.325 32.0667 95.2183 33.1973 95.005 34.392H70.877ZM70.749 27.992H87.069C86.5997 25.816 85.6183 24.1947 84.125 23.128C82.6743 22.0613 81.0103 21.528 79.133 21.528C76.9143 21.528 75.0797 22.104 73.629 23.256C72.1783 24.3653 71.2183 25.944 70.749 27.992ZM105.185 11.16C103.819 11.16 102.625 10.6693 101.601 9.688C100.619 8.664 100.129 7.46933 100.129 6.104C100.129 4.73867 100.619 3.544 101.601 2.52C102.625 1.496 103.819 0.983997 105.185 0.983997C106.593 0.983997 107.787 1.496 108.769 2.52C109.793 3.544 110.305 4.73867 110.305 6.104C110.305 7.46933 109.793 8.664 108.769 9.688C107.787 10.6693 106.593 11.16 105.185 11.16ZM101.089 47V15H109.345V47H101.089ZM141.413 15H149.477V45.464C149.477 50.4133 147.834 54.1893 144.549 56.792C141.306 59.3947 137.381 60.696 132.773 60.696C129.317 60.696 126.266 60.0347 123.621 58.712C121.018 57.3893 119.013 55.448 117.605 52.888L124.645 48.856C126.266 51.8427 129.061 53.336 133.029 53.336C135.632 53.336 137.68 52.6533 139.173 51.288C140.666 49.9227 141.413 47.9813 141.413 45.464V42.008C138.981 45.2507 135.568 46.872 131.173 46.872C126.65 46.872 122.853 45.2933 119.781 42.136C116.752 38.936 115.237 35.0533 115.237 30.488C115.237 25.9653 116.773 22.104 119.845 18.904C122.917 15.704 126.693 14.104 131.173 14.104C135.568 14.104 138.981 15.7253 141.413 18.968V15ZM125.989 36.824C127.696 38.4453 129.85 39.256 132.453 39.256C135.056 39.256 137.189 38.4453 138.853 36.824C140.56 35.16 141.413 33.048 141.413 30.488C141.413 27.9707 140.56 25.9013 138.853 24.28C137.189 22.616 135.056 21.784 132.453 21.784C129.85 21.784 127.696 22.616 125.989 24.28C124.325 25.9013 123.493 27.9707 123.493 30.488C123.493 33.048 124.325 35.16 125.989 36.824ZM174.756 14.104C178.254 14.104 181.134 15.2773 183.396 17.624C185.7 19.9707 186.852 23.2133 186.852 27.352V47H178.596V28.376C178.596 26.2427 178.02 24.6213 176.868 23.512C175.716 22.36 174.18 21.784 172.26 21.784C170.126 21.784 168.42 22.4453 167.14 23.768C165.86 25.0907 165.22 27.0747 165.22 29.72V47H156.964V2.2H165.22V18.584C167.225 15.5973 170.404 14.104 174.756 14.104ZM212.205 22.936H204.973V36.248C204.973 37.3573 205.25 38.168 205.805 38.68C206.36 39.192 207.17 39.4907 208.237 39.576C209.304 39.6187 210.626 39.5973 212.205 39.512V47C206.53 47.64 202.52 47.1067 200.173 45.4C197.869 43.6933 196.717 40.6427 196.717 36.248V22.936H191.149V15H196.717V8.536L204.973 6.04V15H212.205V22.936Z" fill="white"/>
<path d="M243.486 47L234.462 31.448H227.742V47H218.91V2.2H236.83C240.969 2.2 244.489 3.65066 247.39 6.552C250.291 9.45333 251.742 12.952 251.742 17.048C251.742 19.8213 250.953 22.4027 249.374 24.792C247.795 27.1387 245.705 28.9093 243.102 30.104L253.022 47H243.486ZM227.742 10.456V23.704H236.83C238.494 23.704 239.923 23.064 241.118 21.784C242.313 20.4613 242.91 18.8827 242.91 17.048C242.91 15.2133 242.313 13.656 241.118 12.376C239.923 11.096 238.494 10.456 236.83 10.456H227.742ZM263.19 34.392C264.299 38.4027 267.307 40.408 272.214 40.408C275.371 40.408 277.76 39.3413 279.382 37.208L286.038 41.048C282.88 45.6133 278.23 47.896 272.086 47.896C266.795 47.896 262.55 46.296 259.35 43.096C256.15 39.896 254.549 35.864 254.549 31C254.549 26.1787 256.128 22.168 259.286 18.968C262.443 15.7253 266.496 14.104 271.446 14.104C276.139 14.104 280 15.7253 283.03 18.968C286.102 22.2107 287.638 26.2213 287.638 31C287.638 32.0667 287.531 33.1973 287.318 34.392H263.19ZM263.062 27.992H279.382C278.912 25.816 277.931 24.1947 276.438 23.128C274.987 22.0613 273.323 21.528 271.446 21.528C269.227 21.528 267.392 22.104 265.942 23.256C264.491 24.3653 263.531 25.944 263.062 27.992ZM308.383 47.896C303.562 47.896 299.53 46.2747 296.287 43.032C293.087 39.7893 291.487 35.7787 291.487 31C291.487 26.2213 293.087 22.2107 296.287 18.968C299.53 15.7253 303.562 14.104 308.383 14.104C311.498 14.104 314.335 14.8507 316.895 16.344C319.455 17.8373 321.396 19.8427 322.719 22.36L315.615 26.52C314.975 25.1973 313.994 24.152 312.671 23.384C311.391 22.616 309.94 22.232 308.319 22.232C305.844 22.232 303.796 23.064 302.175 24.728C300.554 26.3493 299.743 28.44 299.743 31C299.743 33.5173 300.554 35.608 302.175 37.272C303.796 38.8933 305.844 39.704 308.319 39.704C309.983 39.704 311.455 39.3413 312.735 38.616C314.058 37.848 315.039 36.8027 315.679 35.48L322.847 39.576C321.439 42.0933 319.455 44.12 316.895 45.656C314.335 47.1493 311.498 47.896 308.383 47.896ZM353.978 43.032C350.692 46.2747 346.682 47.896 341.946 47.896C337.21 47.896 333.199 46.2747 329.914 43.032C326.671 39.7467 325.049 35.736 325.049 31C325.049 26.264 326.671 22.2747 329.914 19.032C333.199 15.7467 337.21 14.104 341.946 14.104C346.682 14.104 350.692 15.7467 353.978 19.032C357.263 22.2747 358.906 26.264 358.906 31C358.906 35.736 357.263 39.7467 353.978 43.032ZM335.738 37.336C337.402 39 339.471 39.832 341.946 39.832C344.42 39.832 346.49 39 348.154 37.336C349.818 35.672 350.65 33.56 350.65 31C350.65 28.44 349.818 26.328 348.154 24.664C346.49 23 344.42 22.168 341.946 22.168C339.471 22.168 337.402 23 335.738 24.664C334.116 26.328 333.306 28.44 333.306 31C333.306 33.56 334.116 35.672 335.738 37.336ZM372.97 20.504C373.738 18.456 374.996 16.92 376.746 15.896C378.538 14.872 380.522 14.36 382.698 14.36V23.576C380.18 23.2773 377.919 23.7893 375.914 25.112C373.951 26.4347 372.97 28.632 372.97 31.704V47H364.714V15H372.97V20.504ZM410.595 2.2H418.851V47H410.595V43.224C408.163 46.3387 404.707 47.896 400.227 47.896C395.917 47.896 392.227 46.2747 389.155 43.032C386.125 39.7467 384.611 35.736 384.611 31C384.611 26.264 386.125 22.2747 389.155 19.032C392.227 15.7467 395.917 14.104 400.227 14.104C404.707 14.104 408.163 15.6613 410.595 18.776V2.2ZM395.363 37.528C397.069 39.192 399.203 40.024 401.763 40.024C404.323 40.024 406.435 39.192 408.099 37.528C409.763 35.8213 410.595 33.6453 410.595 31C410.595 28.3547 409.763 26.2 408.099 24.536C406.435 22.8293 404.323 21.976 401.763 21.976C399.203 21.976 397.069 22.8293 395.363 24.536C393.699 26.2 392.867 28.3547 392.867 31C392.867 33.6453 393.699 35.8213 395.363 37.528Z" fill="#2F54EB"/>
</svg>
