<svg width="103" height="45" viewBox="0 0 103 45" fill="none" xmlns="http://www.w3.org/2000/svg">
<path d="M13.504 45L0.96 0.199997H10.24L18.816 33.416L28.16 0.199997H35.712L45.12 33.416L53.696 0.199997H62.976L50.432 45H40.384L31.936 15.432L23.552 45H13.504Z" fill="white"/>
<path d="M92.6735 45L83.6495 29.448H76.9295V45H68.0975V0.199997H86.0175C90.1562 0.199997 93.6762 1.65066 96.5775 4.552C99.4788 7.45333 100.93 10.952 100.93 15.048C100.93 17.8213 100.14 20.4027 98.5615 22.792C96.9828 25.1387 94.8922 26.9093 92.2895 28.104L102.21 45H92.6735ZM76.9295 8.456V21.704H86.0175C87.6815 21.704 89.1108 21.064 90.3055 19.784C91.5002 18.4613 92.0975 16.8827 92.0975 15.048C92.0975 13.2133 91.5002 11.656 90.3055 10.376C89.1108 9.096 87.6815 8.456 86.0175 8.456H76.9295Z" fill="#2F54EB"/>
</svg>
